<svg width="17" height="17" viewBox="0 0 17 17" fill="none" xmlns="http://www.w3.org/2000/svg">
<mask id="path-1-inside-1_212_1413" fill="white">
<path d="M10.3412 7.92429C10.2609 7.92429 10.1862 7.90219 10.1199 7.86663V7.86758C10.1199 7.99406 10.0707 8.11284 9.98154 8.2018C9.89234 8.291 9.77365 8.34016 9.64732 8.34016C9.56575 8.34016 9.49016 8.31751 9.42314 8.28101C9.41637 8.39672 9.37012 8.50487 9.28761 8.58747C9.19841 8.67667 9.07972 8.72583 8.9533 8.72583C8.70214 8.72583 8.49818 8.5284 8.48348 8.28093C8.40576 8.32294 8.3179 8.34496 8.22728 8.33914C7.98021 8.32294 7.78671 8.10946 7.78671 7.85302V5.72741L7.54467 6.14674C7.45249 6.30712 7.27992 6.4067 7.09412 6.4067C7.00358 6.4067 6.91415 6.38295 6.83494 6.33756C6.73631 6.28038 6.66575 6.18858 6.63641 6.07877C6.60691 5.96888 6.62217 5.85396 6.6792 5.75547C6.67928 5.75547 7.47113 4.38422 7.51943 4.29999C7.52518 4.28732 7.54154 4.25059 7.55546 4.21928C7.56875 4.18939 7.58016 4.15872 7.59109 4.12788C7.82989 3.45371 8.42118 3.03493 9.13429 3.03493C10.0603 3.03493 10.8137 3.85187 10.8137 4.85604L10.8138 7.45163C10.8138 7.57796 10.7647 7.69666 10.6756 7.78594C10.5864 7.87514 10.4677 7.9243 10.3412 7.9243L10.3412 7.92429ZM9.1343 3.28605C8.52155 3.28605 8.03316 3.63215 7.82778 4.21186C7.81465 4.24867 7.80096 4.28549 7.78499 4.32136C7.73866 4.42526 7.73866 4.42526 7.72561 4.44021L7.72388 4.43871C7.65922 4.56071 7.46714 4.89335 6.89663 5.88115C6.87319 5.92166 6.86697 5.9687 6.87893 6.01369C6.89104 6.05868 6.92007 6.0966 6.96026 6.1198C7.08502 6.19146 7.25587 6.14521 7.32697 6.02132L7.80356 5.19619C7.83204 5.14702 7.88961 5.12288 7.94483 5.13782C7.99974 5.15253 8.03788 5.20232 8.03788 5.25911V7.8531C8.03788 7.97549 8.13023 8.08112 8.24374 8.08859C8.30918 8.09206 8.37022 8.07011 8.41608 8.02433C8.45777 7.98264 8.48074 7.92711 8.48074 7.86772V6.17122C8.48074 6.10185 8.53698 6.0456 8.60635 6.0456C8.67573 6.0456 8.73197 6.10177 8.73197 6.17122L8.73189 8.25334C8.73189 8.37541 8.83124 8.47476 8.95331 8.47476C9.01262 8.47476 9.06831 8.45179 9.11008 8.4101C9.15177 8.36833 9.17474 8.31265 9.17474 8.25334V6.17122C9.17474 6.10184 9.2309 6.0456 9.30035 6.0456C9.36973 6.0456 9.42597 6.10176 9.42597 6.17122L9.42589 7.84821V7.86772C9.42589 7.98972 9.52524 8.08906 9.6474 8.08906C9.70662 8.08906 9.76216 8.06601 9.80416 8.02416C9.84585 7.98255 9.86882 7.92702 9.86882 7.86763V6.17113C9.86882 6.10176 9.92498 6.04551 9.99444 6.04551C10.0638 6.04551 10.1201 6.10168 10.1201 6.17113L10.1199 7.45169C10.1199 7.57385 10.2192 7.67319 10.3412 7.67319C10.4006 7.67319 10.4562 7.65015 10.4978 7.60854C10.5397 7.56669 10.5626 7.511 10.5626 7.45169L10.5627 4.8561C10.5627 3.99047 9.92191 3.28607 9.13429 3.28607L9.1343 3.28605Z"/>
</mask>
<path d="M10.3412 7.92429C10.2609 7.92429 10.1862 7.90219 10.1199 7.86663V7.86758C10.1199 7.99406 10.0707 8.11284 9.98154 8.2018C9.89234 8.291 9.77365 8.34016 9.64732 8.34016C9.56575 8.34016 9.49016 8.31751 9.42314 8.28101C9.41637 8.39672 9.37012 8.50487 9.28761 8.58747C9.19841 8.67667 9.07972 8.72583 8.9533 8.72583C8.70214 8.72583 8.49818 8.5284 8.48348 8.28093C8.40576 8.32294 8.3179 8.34496 8.22728 8.33914C7.98021 8.32294 7.78671 8.10946 7.78671 7.85302V5.72741L7.54467 6.14674C7.45249 6.30712 7.27992 6.4067 7.09412 6.4067C7.00358 6.4067 6.91415 6.38295 6.83494 6.33756C6.73631 6.28038 6.66575 6.18858 6.63641 6.07877C6.60691 5.96888 6.62217 5.85396 6.6792 5.75547C6.67928 5.75547 7.47113 4.38422 7.51943 4.29999C7.52518 4.28732 7.54154 4.25059 7.55546 4.21928C7.56875 4.18939 7.58016 4.15872 7.59109 4.12788C7.82989 3.45371 8.42118 3.03493 9.13429 3.03493C10.0603 3.03493 10.8137 3.85187 10.8137 4.85604L10.8138 7.45163C10.8138 7.57796 10.7647 7.69666 10.6756 7.78594C10.5864 7.87514 10.4677 7.9243 10.3412 7.9243L10.3412 7.92429ZM9.1343 3.28605C8.52155 3.28605 8.03316 3.63215 7.82778 4.21186C7.81465 4.24867 7.80096 4.28549 7.78499 4.32136C7.73866 4.42526 7.73866 4.42526 7.72561 4.44021L7.72388 4.43871C7.65922 4.56071 7.46714 4.89335 6.89663 5.88115C6.87319 5.92166 6.86697 5.9687 6.87893 6.01369C6.89104 6.05868 6.92007 6.0966 6.96026 6.1198C7.08502 6.19146 7.25587 6.14521 7.32697 6.02132L7.80356 5.19619C7.83204 5.14702 7.88961 5.12288 7.94483 5.13782C7.99974 5.15253 8.03788 5.20232 8.03788 5.25911V7.8531C8.03788 7.97549 8.13023 8.08112 8.24374 8.08859C8.30918 8.09206 8.37022 8.07011 8.41608 8.02433C8.45777 7.98264 8.48074 7.92711 8.48074 7.86772V6.17122C8.48074 6.10185 8.53698 6.0456 8.60635 6.0456C8.67573 6.0456 8.73197 6.10177 8.73197 6.17122L8.73189 8.25334C8.73189 8.37541 8.83124 8.47476 8.95331 8.47476C9.01262 8.47476 9.06831 8.45179 9.11008 8.4101C9.15177 8.36833 9.17474 8.31265 9.17474 8.25334V6.17122C9.17474 6.10184 9.2309 6.0456 9.30035 6.0456C9.36973 6.0456 9.42597 6.10176 9.42597 6.17122L9.42589 7.84821V7.86772C9.42589 7.98972 9.52524 8.08906 9.6474 8.08906C9.70662 8.08906 9.76216 8.06601 9.80416 8.02416C9.84585 7.98255 9.86882 7.92702 9.86882 7.86763V6.17113C9.86882 6.10176 9.92498 6.04551 9.99444 6.04551C10.0638 6.04551 10.1201 6.10168 10.1201 6.17113L10.1199 7.45169C10.1199 7.57385 10.2192 7.67319 10.3412 7.67319C10.4006 7.67319 10.4562 7.65015 10.4978 7.60854C10.5397 7.56669 10.5626 7.511 10.5626 7.45169L10.5627 4.8561C10.5627 3.99047 9.92191 3.28607 9.13429 3.28607L9.1343 3.28605Z" fill="#4CAF4F"/>
<path d="M10.3412 7.92429V7.47914H11.914L10.5745 8.30341L10.3412 7.92429ZM10.1199 7.86663H9.67475V7.12283L10.3303 7.47432L10.1199 7.86663ZM9.98154 8.2018L9.66677 7.88703L9.66719 7.88662L9.98154 8.2018ZM9.42314 8.28101L8.97874 8.25503L9.0197 7.55443L9.63604 7.89007L9.42314 8.28101ZM9.28761 8.58747L9.60255 8.90208L9.60238 8.90224L9.28761 8.58747ZM8.48348 8.28093L8.27182 7.88932L8.88642 7.55714L8.92785 8.25454L8.48348 8.28093ZM8.22728 8.33914L8.19874 8.78338L8.19815 8.78334L8.22728 8.33914ZM7.78671 5.72741L7.40118 5.50488L8.23187 4.06574V5.72741H7.78671ZM7.54467 6.14674L7.15873 5.9249L7.15914 5.9242L7.54467 6.14674ZM6.83494 6.33756L6.61362 6.72381L6.61167 6.72268L6.83494 6.33756ZM6.63641 6.07877L7.06634 5.96336L7.06648 5.96386L6.63641 6.07877ZM6.6792 5.75547L6.29396 5.53241L6.42256 5.31032H6.6792V5.75547ZM7.51943 4.29999L7.92486 4.48381L7.91612 4.50309L7.90559 4.52145L7.51943 4.29999ZM7.55546 4.21928L7.14871 4.0384L7.14872 4.03839L7.55546 4.21928ZM7.59109 4.12788L8.0107 4.27651L8.01066 4.27663L7.59109 4.12788ZM10.8137 4.85604L10.3686 4.85605V4.85604H10.8137ZM10.8138 7.45163L11.259 7.45162V7.45163H10.8138ZM10.6756 7.78594L10.9907 8.10042L10.9904 8.10071L10.6756 7.78594ZM10.3412 7.9243V8.36946H8.76848L10.1079 7.54518L10.3412 7.9243ZM9.1343 3.28605V2.84089H9.72446L9.56233 3.40834L9.1343 3.28605ZM7.82778 4.21186L8.24739 4.36051L8.24705 4.36147L7.82778 4.21186ZM7.78499 4.32136L8.19167 4.5024L8.19157 4.50264L7.78499 4.32136ZM7.72561 4.44021L8.06083 4.7331L7.76962 5.0664L7.43465 4.77711L7.72561 4.44021ZM7.72388 4.43871L7.33055 4.23026L7.59211 3.73672L8.01484 4.10181L7.72388 4.43871ZM6.89663 5.88115L7.28211 6.10379L7.28193 6.10411L6.89663 5.88115ZM6.87893 6.01369L6.44908 6.12942L6.44871 6.12803L6.87893 6.01369ZM6.96026 6.1198L6.73854 6.50581L6.73771 6.50533L6.96026 6.1198ZM7.32697 6.02132L6.94088 5.79973L6.94149 5.79867L7.32697 6.02132ZM7.80356 5.19619L7.41809 4.97354L7.41836 4.97307L7.80356 5.19619ZM7.94483 5.13782L7.82963 5.56782L7.82853 5.56752L7.94483 5.13782ZM8.24374 8.08859L8.22023 8.53317L8.21451 8.53279L8.24374 8.08859ZM8.41608 8.02433L8.73085 8.3391L8.73058 8.33938L8.41608 8.02433ZM8.73197 6.17122H9.17713V6.17124L8.73197 6.17122ZM8.73189 8.25334H8.28674V8.25332L8.73189 8.25334ZM9.11008 8.4101L9.42515 8.72458L9.42455 8.72518L9.11008 8.4101ZM9.42597 6.17122H9.87113V6.17124L9.42597 6.17122ZM9.42589 7.84821H8.98074V7.84819L9.42589 7.84821ZM9.80416 8.02416L10.1186 8.33923L10.1183 8.33952L9.80416 8.02416ZM10.1201 6.17113H10.5652V6.17119L10.1201 6.17113ZM10.1199 7.45169H9.67474L9.67474 7.45164L10.1199 7.45169ZM10.4978 7.60854L10.8126 7.92331L10.8123 7.92361L10.4978 7.60854ZM10.5626 7.45169H10.1174V7.45168L10.5626 7.45169ZM10.5627 4.8561H11.0078V4.85611L10.5627 4.8561ZM9.13429 3.28607V3.73123H8.54414L8.70627 3.16378L9.13429 3.28607ZM10.3412 8.36945C10.1773 8.36945 10.031 8.32407 9.90954 8.25895L10.3303 7.47432C10.336 7.4774 10.3397 7.47858 10.3411 7.47897C10.3424 7.47931 10.3422 7.47914 10.3412 7.47914V8.36945ZM10.5651 7.86663V7.86758H9.67475V7.86663H10.5651ZM10.5651 7.86758C10.5651 8.11175 10.4692 8.34411 10.2959 8.51699L9.66719 7.88662C9.67037 7.88344 9.67195 7.88072 9.67286 7.8785C9.67379 7.87627 9.67475 7.87284 9.67475 7.86758H10.5651ZM10.2963 8.51658C10.1236 8.68933 9.89162 8.78532 9.64732 8.78532V7.89501C9.65242 7.89501 9.65579 7.89408 9.65807 7.89314C9.66035 7.89219 9.66329 7.89051 9.66677 7.88703L10.2963 8.51658ZM9.64732 8.78532C9.48126 8.78532 9.33309 8.73886 9.21024 8.67196L9.63604 7.89007C9.64183 7.89322 9.64551 7.89442 9.64697 7.89482C9.64821 7.89516 9.64811 7.89501 9.64732 7.89501V8.78532ZM9.86753 8.30699C9.85472 8.5261 9.76584 8.73861 9.60255 8.90208L8.97267 8.27286C8.97433 8.27121 8.97528 8.26975 8.97609 8.26791C8.97697 8.26591 8.97834 8.26183 8.97874 8.25503L9.86753 8.30699ZM9.60238 8.90224C9.4296 9.07502 9.19764 9.17099 8.9533 9.17099V8.28067C8.95848 8.28067 8.96187 8.27973 8.96415 8.27879C8.96642 8.27785 8.96936 8.27617 8.97284 8.2727L9.60238 8.90224ZM8.9533 9.17099C8.46185 9.17099 8.0675 8.78527 8.03911 8.30733L8.92785 8.25454C8.9283 8.26211 8.9314 8.26875 8.93688 8.27398C8.93955 8.27653 8.94226 8.27817 8.94462 8.27913C8.94669 8.27998 8.94933 8.28067 8.9533 8.28067V9.17099ZM8.69514 8.67255C8.55135 8.75027 8.38086 8.79508 8.19874 8.78338L8.25582 7.8949C8.25583 7.8949 8.25678 7.89499 8.25912 7.89445C8.26163 7.89386 8.26599 7.89247 8.27182 7.88932L8.69514 8.67255ZM8.19815 8.78334C7.70388 8.75093 7.34156 8.33059 7.34156 7.85302H8.23187C8.23187 7.86808 8.23733 7.87967 8.24419 7.88723C8.25086 7.89459 8.25539 7.89487 8.25641 7.89494L8.19815 8.78334ZM7.34156 7.85302V5.72741H8.23187V7.85302H7.34156ZM8.17225 5.94995L7.93021 6.36928L7.15914 5.9242L7.40118 5.50488L8.17225 5.94995ZM7.93062 6.36857C7.7586 6.66783 7.43842 6.85186 7.09412 6.85186V5.96154C7.12141 5.96154 7.14637 5.94641 7.15873 5.9249L7.93062 6.36857ZM7.09412 6.85186C6.92578 6.85186 6.76007 6.80771 6.61363 6.7238L7.05626 5.95132C7.06823 5.95818 7.08139 5.96154 7.09412 5.96154V6.85186ZM6.61167 6.72268C6.41181 6.60681 6.26634 6.41825 6.20634 6.19367L7.06648 5.96386C7.06607 5.96234 7.06496 5.95965 7.06282 5.95686C7.06069 5.95409 7.05872 5.95274 7.05821 5.95244L6.61167 6.72268ZM6.20647 6.19417C6.14623 5.96976 6.17777 5.73308 6.29396 5.53241L7.06443 5.97854C7.06507 5.97744 7.06618 5.9749 7.06666 5.9713C7.06713 5.9677 7.06673 5.96482 7.06634 5.96336L6.20647 6.19417ZM6.6792 5.31032C6.46083 5.36756 6.29739 5.5266 6.29616 5.52865C6.29576 5.52934 6.29515 5.53037 6.29496 5.5307C6.29485 5.53089 6.29466 5.53121 6.2946 5.53132C6.29456 5.53139 6.29447 5.53153 6.29445 5.53156C6.29439 5.53167 6.29441 5.53164 6.29458 5.53135C6.29488 5.53083 6.29539 5.52995 6.29613 5.52867C6.29759 5.52614 6.29979 5.52234 6.30269 5.51732C6.30848 5.50729 6.317 5.49255 6.32788 5.47372C6.34962 5.43608 6.38074 5.38221 6.41824 5.31727C6.49323 5.18742 6.59372 5.01339 6.69572 4.83673C6.90006 4.48282 7.10955 4.11989 7.13328 4.07852L7.90559 4.52145C7.88101 4.56431 7.67042 4.92913 7.46674 5.2819C7.36473 5.45858 7.26422 5.63264 7.18921 5.76252C7.15171 5.82746 7.12057 5.88137 7.09881 5.91905C7.08793 5.93789 7.07938 5.95269 7.07354 5.96278C7.07063 5.96783 7.06837 5.97174 7.06683 5.9744C7.06606 5.97572 7.06543 5.97681 7.06497 5.97761C7.06476 5.97798 7.06449 5.97844 7.06423 5.97888C7.06414 5.97905 7.06385 5.97954 7.06351 5.98012C7.06329 5.98049 7.06267 5.98156 7.06225 5.98226C7.06102 5.98434 6.89756 6.14339 6.6792 6.20063V5.31032ZM7.11401 4.11616C7.11891 4.10535 7.13443 4.07051 7.14871 4.0384L7.96221 4.40017C7.94864 4.43067 7.93144 4.46929 7.92486 4.48381L7.11401 4.11616ZM7.14872 4.03839C7.1549 4.02448 7.16175 4.0067 7.17153 3.97913L8.01066 4.27663C7.99857 4.31073 7.9826 4.35431 7.96221 4.40018L7.14872 4.03839ZM7.17148 3.97925C7.47298 3.12806 8.23187 2.58978 9.13429 2.58978V3.48009C8.61049 3.48009 8.1868 3.77936 8.0107 4.27651L7.17148 3.97925ZM9.13429 2.58978C10.3394 2.58978 11.2589 3.64065 11.2589 4.85604H10.3686C10.3686 4.06309 9.78122 3.48009 9.13429 3.48009V2.58978ZM11.2589 4.85602L11.259 7.45162L10.3686 7.45165L10.3686 4.85605L11.2589 4.85602ZM11.259 7.45163C11.259 7.69575 11.1632 7.92758 10.9907 8.10042L10.3605 7.47146C10.364 7.46793 10.3658 7.46494 10.3667 7.4626C10.3677 7.46026 10.3686 7.45682 10.3686 7.45163H11.259ZM10.9904 8.10071C10.8176 8.27352 10.5856 8.36946 10.3412 8.36946V7.47914C10.3465 7.47914 10.3499 7.47819 10.3521 7.47725C10.3544 7.47631 10.3574 7.47464 10.3608 7.47117L10.9904 8.10071ZM10.1079 7.54518L10.1079 7.54517L10.5745 8.30341L10.5745 8.30342L10.1079 7.54518ZM9.1343 3.7312C8.71106 3.7312 8.39012 3.95761 8.24739 4.36051L7.40818 4.06321C7.67619 3.30669 8.33204 2.84089 9.1343 2.84089V3.7312ZM8.24705 4.36147C8.23299 4.40085 8.21474 4.45058 8.19167 4.5024L7.37832 4.14031C7.38719 4.12039 7.3963 4.0965 7.40852 4.06225L8.24705 4.36147ZM8.19157 4.50264C8.17118 4.54836 8.1541 4.58697 8.14103 4.61312C8.13292 4.62935 8.11979 4.65437 8.10075 4.68208C8.08145 4.71015 8.06238 4.73133 8.06083 4.7331L7.39038 4.14731C7.39143 4.14611 7.39109 4.1465 7.39056 4.14711C7.38988 4.1479 7.38815 4.14992 7.38588 4.15269C7.38081 4.15887 7.37417 4.16739 7.36701 4.17781C7.35309 4.19807 7.3453 4.21379 7.34461 4.21517C7.34411 4.21618 7.34442 4.21558 7.34594 4.21234C7.3474 4.2092 7.34948 4.20469 7.35246 4.19811C7.35854 4.18467 7.36662 4.16654 7.37842 4.14008L8.19157 4.50264ZM7.43465 4.77711L7.43291 4.77562L8.01484 4.10181L8.01657 4.1033L7.43465 4.77711ZM8.11721 4.64717C8.04754 4.77863 7.84864 5.12288 7.28211 6.10379L6.51115 5.65851C7.08563 4.66383 7.2709 4.3428 7.33055 4.23026L8.11721 4.64717ZM7.28193 6.10411C7.31754 6.04255 7.32747 5.96829 7.30915 5.89935L6.44871 6.12803C6.40648 5.96911 6.42883 5.80077 6.51133 5.65819L7.28193 6.10411ZM7.30878 5.89796C7.29046 5.82992 7.24544 5.77042 7.18282 5.73427L6.73771 6.50533C6.5947 6.42277 6.49163 6.28744 6.44908 6.12942L7.30878 5.89796ZM7.18199 5.73379C7.13132 5.70469 7.08203 5.70488 7.048 5.71404C7.0141 5.72317 6.97064 5.74789 6.94088 5.79973L7.71306 6.24291C7.51905 6.58094 7.07567 6.69945 6.73854 6.50581L7.18199 5.73379ZM6.94149 5.79867L7.41809 4.97354L8.18904 5.41883L7.71245 6.24397L6.94149 5.79867ZM7.41836 4.97307C7.54694 4.75108 7.80938 4.63999 8.06113 4.70813L7.82853 5.56752C7.96984 5.60576 8.11714 5.54297 8.18877 5.4193L7.41836 4.97307ZM8.06003 4.70783C8.30977 4.77474 8.48304 5.00105 8.48304 5.25911H7.59273C7.59273 5.40359 7.6897 5.53033 7.82963 5.56781L8.06003 4.70783ZM8.48304 5.25911V7.8531H7.59273V5.25911H8.48304ZM8.48304 7.8531C8.48304 7.80237 8.46425 7.75626 8.4334 7.72097C8.4026 7.68573 8.34825 7.64935 8.27297 7.6444L8.21451 8.53279C7.83977 8.50813 7.59273 8.18169 7.59273 7.8531H8.48304ZM8.26725 7.64406C8.21466 7.64128 8.15041 7.66054 8.10158 7.70928L8.73058 8.33938C8.59003 8.47968 8.40371 8.54283 8.22023 8.53313L8.26725 7.64406ZM8.10131 7.70956C8.05906 7.7518 8.03558 7.80969 8.03558 7.86772H8.92589C8.92589 8.04453 8.85648 8.21348 8.73085 8.3391L8.10131 7.70956ZM8.03558 7.86772V6.17122H8.92589V7.86772H8.03558ZM8.03558 6.17122C8.03558 5.85599 8.29113 5.60045 8.60635 5.60045V6.49076C8.78283 6.49076 8.92589 6.3477 8.92589 6.17122H8.03558ZM8.60635 5.60045C8.9214 5.60045 9.17713 5.85574 9.17713 6.17122H8.28682C8.28682 6.3478 8.43006 6.49076 8.60635 6.49076V5.60045ZM9.17713 6.17124L9.17705 8.25335L8.28674 8.25332L8.28682 6.1712L9.17713 6.17124ZM9.17705 8.25334C9.17705 8.12956 9.07709 8.0296 8.95331 8.0296V8.91991C8.58539 8.91991 8.28674 8.62127 8.28674 8.25334H9.17705ZM8.95331 8.0296C8.89538 8.0296 8.83777 8.05295 8.79561 8.09503L9.42455 8.72518C9.29885 8.85063 9.12987 8.91991 8.95331 8.91991V8.0296ZM8.79501 8.09563C8.75292 8.13779 8.72958 8.1954 8.72958 8.25334H9.61989C9.61989 8.42989 9.55061 8.59888 9.42515 8.72458L8.79501 8.09563ZM8.72958 8.25334V6.17122H9.61989V8.25334H8.72958ZM8.72958 6.17122C8.72958 5.85618 8.98486 5.60045 9.30035 5.60045V6.49076C9.47694 6.49076 9.61989 6.34751 9.61989 6.17122H8.72958ZM9.30035 5.60045C9.6154 5.60045 9.87113 5.85573 9.87113 6.17122H8.98082C8.98082 6.3478 9.12406 6.49076 9.30035 6.49076V5.60045ZM9.87113 6.17124L9.87105 7.84823L8.98074 7.84819L8.98082 6.1712L9.87113 6.17124ZM9.87105 7.84821V7.86772H8.98074V7.84821H9.87105ZM9.87105 7.86772C9.87105 7.74365 9.77087 7.6439 9.6474 7.6439V8.53421C9.2796 8.53421 8.98074 8.23579 8.98074 7.86772H9.87105ZM9.6474 7.6439C9.58824 7.6439 9.53098 7.66796 9.48998 7.7088L10.1183 8.33952C9.99334 8.46406 9.82501 8.53421 9.6474 8.53421V7.6439ZM9.48969 7.70909C9.4471 7.7516 9.42366 7.80967 9.42366 7.86763H10.314C10.314 8.04437 10.2446 8.21351 10.1186 8.33923L9.48969 7.70909ZM9.42366 7.86763V6.17113H10.314V7.86763H9.42366ZM9.42366 6.17113C9.42366 5.85608 9.67895 5.60036 9.99444 5.60036V6.49067C10.171 6.49067 10.314 6.34743 10.314 6.17113H9.42366ZM9.99444 5.60036C10.3095 5.60036 10.5652 5.85564 10.5652 6.17113H9.6749C9.6749 6.34771 9.81814 6.49067 9.99444 6.49067V5.60036ZM10.5652 6.17119L10.5651 7.45175L9.67474 7.45164L9.6749 6.17108L10.5652 6.17119ZM10.5651 7.45169C10.5651 7.32821 10.4653 7.22804 10.3412 7.22804V8.11835C9.97318 8.11835 9.67474 7.81949 9.67474 7.45169H10.5651ZM10.3412 7.22804C10.2828 7.22804 10.2252 7.25168 10.1834 7.29347L10.8123 7.92361C10.6871 8.04862 10.5184 8.11835 10.3412 8.11835V7.22804ZM10.1831 7.29377C10.1407 7.33616 10.1174 7.39401 10.1174 7.45169H11.0077C11.0077 7.628 10.9387 7.79723 10.8126 7.92331L10.1831 7.29377ZM10.1174 7.45168L10.1175 4.85608L11.0078 4.85611L11.0077 7.45171L10.1174 7.45168ZM10.1175 4.8561C10.1175 4.19575 9.63736 3.73123 9.13429 3.73123V2.84092C10.2065 2.84092 11.0078 3.78519 11.0078 4.8561H10.1175ZM8.70627 3.16378L8.70627 3.16375L9.56233 3.40834L9.56232 3.40837L8.70627 3.16378Z" fill="#4CAF4F" mask="url(#path-1-inside-1_212_1413)"/>
<mask id="path-3-inside-2_212_1413" fill="white">
<path d="M5.40584 9.72827L7.22866 8.63475C7.44843 8.50277 7.73121 8.55885 7.87216 8.7625C7.92361 8.83667 7.94988 8.92312 7.95397 9.01114C8.02193 8.97567 8.09587 8.95639 8.17114 8.95639C8.20968 8.95639 8.24838 8.96119 8.28661 8.97071C8.40908 9.00131 8.51228 9.07784 8.57718 9.18607C8.64215 9.29446 8.66111 9.42149 8.63051 9.54382C8.60227 9.657 8.53345 9.75227 8.43772 9.81763C8.50466 9.85712 8.56239 9.911 8.60345 9.97959C8.66842 10.088 8.68738 10.2149 8.65686 10.3374C8.62626 10.4597 8.54973 10.5629 8.44134 10.628L8.44071 10.6284C8.50647 10.6678 8.56318 10.7211 8.60377 10.7887C8.66882 10.8971 8.68778 11.0241 8.65718 11.1466C8.6265 11.269 8.54997 11.3722 8.44174 11.4371L6.21605 12.7724C5.80065 13.0215 5.32044 13.1075 4.86406 13.0143C4.4036 12.9202 4.02226 12.6555 3.79038 12.269C3.42344 11.6574 3.47843 10.9348 3.93362 10.3834C3.95447 10.3582 3.975 10.3325 3.99364 10.306C4.01338 10.2779 4.03643 10.2448 4.04429 10.2335C4.09141 10.1493 4.86023 8.76417 4.86015 8.76433C4.93778 8.62424 5.0833 8.54494 5.23338 8.54502C5.30338 8.54502 5.37441 8.56225 5.43994 8.59859C5.51907 8.6428 5.58553 8.70722 5.63202 8.78485C5.72759 8.94414 5.73097 9.14346 5.64099 9.30478L5.40584 9.72827ZM5.41678 8.91399C5.39239 8.87332 5.35888 8.84091 5.3179 8.81795C5.23319 8.77107 5.12653 8.80158 5.07989 8.88598C4.52976 9.87708 4.34223 10.2148 4.26986 10.335L4.27151 10.3354C4.26545 10.3556 4.26545 10.3556 4.19922 10.4502C4.17673 10.4822 4.15227 10.513 4.12733 10.5432C3.73592 11.0175 3.69047 11.6143 4.00565 12.1398C4.20087 12.4652 4.52354 12.6884 4.91422 12.7682C5.30916 12.8485 5.72542 12.7737 6.08671 12.557L8.3126 11.2217C8.36342 11.1912 8.39928 11.1429 8.4136 11.0855C8.42792 11.0283 8.41903 10.9687 8.38851 10.9179C8.32574 10.8133 8.18942 10.7789 8.08481 10.8419L6.98674 11.5007C6.92728 11.5364 6.85004 11.5172 6.8144 11.4577C6.77869 11.3982 6.79796 11.321 6.85743 11.2853L7.95557 10.6265L8.31221 10.4126C8.36302 10.3821 8.39897 10.3337 8.41329 10.2765C8.4276 10.2192 8.41871 10.1596 8.3882 10.1088C8.32535 10.0041 8.18903 9.97007 8.0845 10.0328L6.62971 10.9056C6.57009 10.9413 6.49308 10.922 6.45737 10.8625C6.42166 10.8031 6.44101 10.7259 6.5004 10.6902L8.28586 9.61911C8.33668 9.58859 8.37254 9.54029 8.38686 9.48295C8.40118 9.42569 8.39229 9.36614 8.36185 9.31533C8.33141 9.2646 8.28303 9.22873 8.22569 9.21441C8.16803 9.2001 8.10872 9.20898 8.05807 9.23935L7.72755 9.43765C7.72747 9.43765 7.72747 9.43772 7.72739 9.43772H7.72731L6.27261 10.3104C6.21299 10.3463 6.1359 10.327 6.10027 10.2674C6.06456 10.2079 6.08391 10.1308 6.1433 10.0951L7.59808 9.22236C7.64889 9.19184 7.68484 9.14346 7.69915 9.08628C7.71488 9.02351 7.70293 8.95932 7.66564 8.90552C7.60099 8.812 7.46271 8.78714 7.35786 8.85015L5.13358 10.1845C5.08489 10.2136 5.02251 10.2065 4.98169 10.1671C4.94079 10.1276 4.93158 10.0656 4.95911 10.0159L5.42163 9.18264C5.46804 9.09934 5.46623 8.99645 5.41675 8.91402L5.41678 8.91399Z"/>
</mask>
<path d="M5.40584 9.72827L7.22866 8.63475C7.44843 8.50277 7.73121 8.55885 7.87216 8.7625C7.92361 8.83667 7.94988 8.92312 7.95397 9.01114C8.02193 8.97567 8.09587 8.95639 8.17114 8.95639C8.20968 8.95639 8.24838 8.96119 8.28661 8.97071C8.40908 9.00131 8.51228 9.07784 8.57718 9.18607C8.64215 9.29446 8.66111 9.42149 8.63051 9.54382C8.60227 9.657 8.53345 9.75227 8.43772 9.81763C8.50466 9.85712 8.56239 9.911 8.60345 9.97959C8.66842 10.088 8.68738 10.2149 8.65686 10.3374C8.62626 10.4597 8.54973 10.5629 8.44134 10.628L8.44071 10.6284C8.50647 10.6678 8.56318 10.7211 8.60377 10.7887C8.66882 10.8971 8.68778 11.0241 8.65718 11.1466C8.6265 11.269 8.54997 11.3722 8.44174 11.4371L6.21605 12.7724C5.80065 13.0215 5.32044 13.1075 4.86406 13.0143C4.4036 12.9202 4.02226 12.6555 3.79038 12.269C3.42344 11.6574 3.47843 10.9348 3.93362 10.3834C3.95447 10.3582 3.975 10.3325 3.99364 10.306C4.01338 10.2779 4.03643 10.2448 4.04429 10.2335C4.09141 10.1493 4.86023 8.76417 4.86015 8.76433C4.93778 8.62424 5.0833 8.54494 5.23338 8.54502C5.30338 8.54502 5.37441 8.56225 5.43994 8.59859C5.51907 8.6428 5.58553 8.70722 5.63202 8.78485C5.72759 8.94414 5.73097 9.14346 5.64099 9.30478L5.40584 9.72827ZM5.41678 8.91399C5.39239 8.87332 5.35888 8.84091 5.3179 8.81795C5.23319 8.77107 5.12653 8.80158 5.07989 8.88598C4.52976 9.87708 4.34223 10.2148 4.26986 10.335L4.27151 10.3354C4.26545 10.3556 4.26545 10.3556 4.19922 10.4502C4.17673 10.4822 4.15227 10.513 4.12733 10.5432C3.73592 11.0175 3.69047 11.6143 4.00565 12.1398C4.20087 12.4652 4.52354 12.6884 4.91422 12.7682C5.30916 12.8485 5.72542 12.7737 6.08671 12.557L8.3126 11.2217C8.36342 11.1912 8.39928 11.1429 8.4136 11.0855C8.42792 11.0283 8.41903 10.9687 8.38851 10.9179C8.32574 10.8133 8.18942 10.7789 8.08481 10.8419L6.98674 11.5007C6.92728 11.5364 6.85004 11.5172 6.8144 11.4577C6.77869 11.3982 6.79796 11.321 6.85743 11.2853L7.95557 10.6265L8.31221 10.4126C8.36302 10.3821 8.39897 10.3337 8.41329 10.2765C8.4276 10.2192 8.41871 10.1596 8.3882 10.1088C8.32535 10.0041 8.18903 9.97007 8.0845 10.0328L6.62971 10.9056C6.57009 10.9413 6.49308 10.922 6.45737 10.8625C6.42166 10.8031 6.44101 10.7259 6.5004 10.6902L8.28586 9.61911C8.33668 9.58859 8.37254 9.54029 8.38686 9.48295C8.40118 9.42569 8.39229 9.36614 8.36185 9.31533C8.33141 9.2646 8.28303 9.22873 8.22569 9.21441C8.16803 9.2001 8.10872 9.20898 8.05807 9.23935L7.72755 9.43765C7.72747 9.43765 7.72747 9.43772 7.72739 9.43772H7.72731L6.27261 10.3104C6.21299 10.3463 6.1359 10.327 6.10027 10.2674C6.06456 10.2079 6.08391 10.1308 6.1433 10.0951L7.59808 9.22236C7.64889 9.19184 7.68484 9.14346 7.69915 9.08628C7.71488 9.02351 7.70293 8.95932 7.66564 8.90552C7.60099 8.812 7.46271 8.78714 7.35786 8.85015L5.13358 10.1845C5.08489 10.2136 5.02251 10.2065 4.98169 10.1671C4.94079 10.1276 4.93158 10.0656 4.95911 10.0159L5.42163 9.18264C5.46804 9.09934 5.46623 8.99645 5.41675 8.91402L5.41678 8.91399Z" fill="#4CAF4F"/>
<path d="M5.40584 9.72827L5.63485 10.11L4.21015 10.9647L5.01666 9.51217L5.40584 9.72827ZM7.22866 8.63475L7.45785 9.01637L7.45766 9.01649L7.22866 8.63475ZM7.87216 8.7625L7.50637 9.01619L7.50613 9.01585L7.87216 8.7625ZM7.95397 9.01114L8.15996 9.40577L7.54166 9.72851L7.50929 9.0318L7.95397 9.01114ZM8.28661 8.97071L8.39416 8.53874L8.39451 8.53883L8.28661 8.97071ZM8.57718 9.18607L8.95895 8.95713L8.95899 8.9572L8.57718 9.18607ZM8.63051 9.54382L8.19859 9.43606L8.19866 9.43579L8.63051 9.54382ZM8.43772 9.81763L8.21155 10.201L7.60809 9.84508L8.1867 9.45L8.43772 9.81763ZM8.60345 9.97959L8.22164 10.2085L8.2215 10.2082L8.60345 9.97959ZM8.65686 10.3374L9.0888 10.4451L9.08871 10.4454L8.65686 10.3374ZM8.44134 10.628L8.20537 10.2504L8.21224 10.2463L8.44134 10.628ZM8.44071 10.6284L8.21188 11.0102L7.58803 10.6364L8.20478 10.2509L8.44071 10.6284ZM8.60377 10.7887L8.98536 10.5594L8.98546 10.5596L8.60377 10.7887ZM8.65718 11.1466L9.08906 11.2545L9.08898 11.2548L8.65718 11.1466ZM8.44174 11.4371L8.67088 11.8188L8.67074 11.8189L8.44174 11.4371ZM6.21605 12.7724L6.44506 13.1541L6.44499 13.1541L6.21605 12.7724ZM4.86406 13.0143L4.77498 13.4504L4.77496 13.4504L4.86406 13.0143ZM3.79038 12.269L4.1721 12.0399L4.17213 12.04L3.79038 12.269ZM3.93362 10.3834L3.59031 10.1L3.59077 10.0994L3.93362 10.3834ZM3.99364 10.306L3.62915 10.0504L3.62948 10.0499L3.99364 10.306ZM4.04429 10.2335L4.43273 10.451L4.42221 10.4697L4.40994 10.4874L4.04429 10.2335ZM4.86015 8.76433L5.24951 8.98011L4.46199 8.56525L4.86015 8.76433ZM5.23338 8.54502V8.99018H5.23314L5.23338 8.54502ZM5.43994 8.59859L5.65584 8.20929L5.65704 8.20996L5.43994 8.59859ZM5.63202 8.78485L5.2503 9.01388L5.2501 9.01354L5.63202 8.78485ZM5.64099 9.30478L5.2518 9.08868L5.25223 9.08791L5.64099 9.30478ZM5.41678 8.91399L5.79856 8.68507L5.95296 8.94257L5.77206 9.18219L5.41678 8.91399ZM5.3179 8.81795L5.53345 8.42845L5.53554 8.42962L5.3179 8.81795ZM5.07989 8.88598L5.46952 9.10129L5.46911 9.10203L5.07989 8.88598ZM4.26986 10.335L4.16675 10.7681L3.57441 10.627L3.8885 10.1054L4.26986 10.335ZM4.27151 10.3354L4.37462 9.90237L4.83374 10.0117L4.6978 10.4636L4.27151 10.3354ZM4.19922 10.4502L4.56392 10.7054L4.56344 10.7061L4.19922 10.4502ZM4.12733 10.5432L4.47098 10.8262L4.47065 10.8266L4.12733 10.5432ZM4.00565 12.1398L3.6239 12.3687L3.62389 12.3687L4.00565 12.1398ZM4.91422 12.7682L4.82552 13.2044L4.82518 13.2043L4.91422 12.7682ZM6.08671 12.557L5.85768 12.1753L5.85771 12.1752L6.08671 12.557ZM8.3126 11.2217L8.0836 10.8399L8.08383 10.8398L8.3126 11.2217ZM8.4136 11.0855L7.9817 10.9777L7.98173 10.9776L8.4136 11.0855ZM8.38851 10.9179L8.0069 11.1471L8.00679 11.1469L8.38851 10.9179ZM8.08481 10.8419L8.31447 11.2233L8.31382 11.2236L8.08481 10.8419ZM6.98674 11.5007L6.75757 11.1191L6.75773 11.119L6.98674 11.5007ZM6.8144 11.4577L7.19603 11.2285L7.19639 11.2291L6.8144 11.4577ZM6.85743 11.2853L6.62825 10.9037L6.62843 10.9036L6.85743 11.2853ZM7.95557 10.6265L8.18458 11.0083L8.18457 11.0083L7.95557 10.6265ZM8.31221 10.4126L8.54142 10.7942L8.54122 10.7943L8.31221 10.4126ZM8.41329 10.2765L8.84519 10.3843L8.84512 10.3846L8.41329 10.2765ZM8.3882 10.1088L8.00674 10.3383L8.00653 10.3379L8.3882 10.1088ZM8.0845 10.0328L8.31365 10.4145L8.3135 10.4146L8.0845 10.0328ZM6.62971 10.9056L6.40061 10.5239L6.40071 10.5238L6.62971 10.9056ZM6.45737 10.8625L6.839 10.6334L6.839 10.6334L6.45737 10.8625ZM6.5004 10.6902L6.271 10.3087L6.2714 10.3085L6.5004 10.6902ZM8.28586 9.61911L8.51507 10.0007L8.51486 10.0008L8.28586 9.61911ZM8.38686 9.48295L7.95496 9.37513L7.955 9.37499L8.38686 9.48295ZM8.36185 9.31533L8.74356 9.0863L8.74372 9.08656L8.36185 9.31533ZM8.22569 9.21441L8.33296 8.78237L8.33351 8.78251L8.22569 9.21441ZM8.05807 9.23935L7.82905 8.85762L7.82921 8.85753L8.05807 9.23935ZM7.72755 9.43765L7.95657 9.81937L7.85084 9.8828H7.72755V9.43765ZM7.72731 9.43772L7.4983 9.05599L7.60402 8.99257H7.72731V9.43772ZM6.27261 10.3104L6.04314 9.92899L6.0436 9.92871L6.27261 10.3104ZM6.10027 10.2674L6.4819 10.0382L6.48226 10.0388L6.10027 10.2674ZM6.1433 10.0951L5.9139 9.71358L5.91429 9.71334L6.1433 10.0951ZM7.59808 9.22236L7.82728 9.60397L7.82708 9.60409L7.59808 9.22236ZM7.69915 9.08628L7.26732 8.97818L7.26735 8.97806L7.69915 9.08628ZM7.66564 8.90552L7.29976 9.15908L7.29947 9.15867L7.66564 8.90552ZM7.35786 8.85015L7.58714 9.23171L7.58686 9.23188L7.35786 8.85015ZM5.13358 10.1845L5.36258 10.5662L5.36197 10.5666L5.13358 10.1845ZM4.98169 10.1671L4.67252 10.4874L4.67251 10.4874L4.98169 10.1671ZM4.95911 10.0159L4.56984 9.80002L4.56989 9.79992L4.95911 10.0159ZM5.42163 9.18264L5.03241 8.96661L5.03276 8.96598L5.42163 9.18264ZM5.41675 8.91402L5.03506 9.14309L4.88049 8.88554L5.06147 8.64581L5.41675 8.91402ZM5.17684 9.34653L6.99966 8.25302L7.45766 9.01649L5.63485 10.11L5.17684 9.34653ZM6.99947 8.25313C7.40894 8.00721 7.95616 8.10168 8.23819 8.50915L7.50613 9.01585C7.5056 9.01508 7.50307 9.01134 7.49331 9.0094C7.48329 9.00741 7.47061 9.00871 7.45785 9.01637L6.99947 8.25313ZM8.23796 8.50881C8.342 8.65883 8.3911 8.82802 8.39864 8.99048L7.50929 9.0318C7.50866 9.01821 7.50521 9.01451 7.50637 9.01619L8.23796 8.50881ZM7.74798 8.61651C7.87487 8.55028 8.01906 8.51124 8.17114 8.51124V9.40155C8.17267 9.40155 8.16899 9.40106 8.15996 9.40577L7.74798 8.61651ZM8.17114 8.51124C8.24674 8.51124 8.32154 8.52066 8.39416 8.53874L8.17907 9.40268C8.17523 9.40172 8.17263 9.40155 8.17114 9.40155V8.51124ZM8.39451 8.53883C8.63169 8.59809 8.83336 8.7477 8.95895 8.95713L8.19541 9.41501C8.19284 9.41072 8.19036 9.40835 8.18839 9.40689C8.18643 9.40544 8.18348 9.40378 8.17871 9.40259L8.39451 8.53883ZM8.95899 8.9572C9.08445 9.1665 9.12169 9.41466 9.06236 9.65184L8.19866 9.43579C8.19983 9.43113 8.19976 9.42781 8.1994 9.42537C8.19903 9.42292 8.19808 9.41947 8.19537 9.41494L8.95899 8.9572ZM9.06243 9.65157C9.00648 9.87583 8.87005 10.0615 8.68874 10.1853L8.1867 9.45C8.19232 9.44616 8.19505 9.44292 8.19625 9.44123C8.19735 9.43969 8.19805 9.43823 8.19859 9.43606L9.06243 9.65157ZM8.66389 9.43421C8.7872 9.50695 8.90183 9.61134 8.9854 9.75094L8.2215 10.2082C8.22196 10.209 8.22209 10.2089 8.22103 10.2079C8.21986 10.2068 8.21697 10.2042 8.21155 10.201L8.66389 9.43421ZM8.98527 9.75072C9.11075 9.96006 9.14788 10.208 9.0888 10.4451L8.22492 10.2298C8.22614 10.2249 8.22606 10.2214 8.22569 10.2189C8.22532 10.2165 8.22436 10.213 8.22164 10.2085L8.98527 9.75072ZM9.08871 10.4454C9.02939 10.6826 8.87973 10.884 8.67044 11.0097L8.21224 10.2463C8.21676 10.2436 8.21924 10.241 8.22073 10.239C8.22222 10.237 8.22385 10.234 8.22501 10.2294L9.08871 10.4454ZM8.67727 11.0055L8.67664 11.0059L8.20478 10.2509L8.20541 10.2505L8.67727 11.0055ZM8.66954 10.2465C8.79063 10.3191 8.90297 10.4223 8.98536 10.5594L8.22218 11.0179C8.22252 11.0185 8.22253 11.0183 8.22139 11.0172C8.22015 11.016 8.21724 11.0134 8.21188 11.0102L8.66954 10.2465ZM8.98546 10.5596C9.11117 10.7691 9.14832 11.0173 9.08906 11.2545L8.2253 11.0387C8.2265 11.0338 8.22642 11.0305 8.22606 11.028C8.2257 11.0256 8.22477 11.0222 8.22208 11.0178L8.98546 10.5596ZM9.08898 11.2548C9.0296 11.4917 8.8801 11.6932 8.67088 11.8188L8.2126 11.0555C8.21698 11.0529 8.21944 11.0503 8.22096 11.0482C8.22248 11.0462 8.22417 11.0432 8.22538 11.0383L9.08898 11.2548ZM8.67074 11.8189L6.44506 13.1541L5.98704 12.3906L8.21273 11.0554L8.67074 11.8189ZM6.44499 13.1541C5.93837 13.458 5.3452 13.5669 4.77498 13.4504L4.95315 12.5781C5.29568 12.6481 5.66293 12.585 5.98711 12.3906L6.44499 13.1541ZM4.77496 13.4504C4.19815 13.3326 3.70776 12.9966 3.40864 12.498L4.17213 12.04C4.33675 12.3144 4.60905 12.5078 4.95317 12.5781L4.77496 13.4504ZM3.40867 12.498C2.94431 11.7241 3.01557 10.7963 3.59031 10.1L4.27693 10.6667C3.94129 11.0734 3.90257 11.5907 4.1721 12.0399L3.40867 12.498ZM3.59077 10.0994C3.6092 10.0772 3.62079 10.0623 3.62915 10.0504L4.35813 10.5615C4.3292 10.6028 4.29974 10.6392 4.27647 10.6673L3.59077 10.0994ZM3.62948 10.0499C3.64872 10.0226 3.67127 9.99023 3.67865 9.97961L4.40994 10.4874C4.40158 10.4994 4.37804 10.5332 4.35779 10.562L3.62948 10.0499ZM3.65586 10.0161C3.67891 9.97489 3.88224 9.60874 4.08072 9.25122C4.17975 9.07284 4.27732 8.89709 4.35011 8.76594C4.38651 8.70036 4.41672 8.64594 4.43783 8.60792C4.44838 8.5889 4.45666 8.57399 4.4623 8.56383C4.46512 8.55875 4.46728 8.55486 4.46874 8.55223C4.46947 8.55092 4.47003 8.54991 4.4704 8.54923C4.47059 8.5489 4.47074 8.54862 4.47085 8.54843C4.4709 8.54833 4.47097 8.54822 4.47103 8.54811C4.47106 8.54805 4.47114 8.54791 4.47119 8.54781C4.47135 8.54754 5.06827 8.37082 5.2583 8.96341L4.46199 8.56525C4.65202 9.15784 5.24894 8.98113 5.24908 8.98088C5.24912 8.9808 5.24918 8.98069 5.2492 8.98067C5.24921 8.98064 5.2492 8.98066 5.24916 8.98073C5.24909 8.98087 5.24896 8.98109 5.24878 8.98142C5.24842 8.98207 5.24788 8.98305 5.24715 8.98435C5.2457 8.98696 5.24355 8.99085 5.24073 8.99593C5.23509 9.00608 5.22681 9.02099 5.21626 9.04C5.19515 9.07803 5.16494 9.13245 5.12854 9.19803C5.05574 9.32919 4.95817 9.50496 4.85912 9.68337C4.66143 10.0394 4.45679 10.408 4.43273 10.451L3.65586 10.0161ZM4.47078 8.54855C4.63015 8.26098 4.92843 8.0997 5.23361 8.09987L5.23314 8.99018C5.23631 8.99018 5.23905 8.98942 5.24167 8.98792C5.24492 8.98605 5.24791 8.98299 5.24951 8.98011L4.47078 8.54855ZM5.23338 8.09987C5.37678 8.09987 5.5224 8.13529 5.65584 8.2093L5.22403 8.98788C5.22642 8.98921 5.22999 8.99018 5.23338 8.99018V8.09987ZM5.65704 8.20996C5.80393 8.29202 5.92732 8.4115 6.01394 8.55616L5.2501 9.01354C5.24375 9.00293 5.2342 8.99357 5.22283 8.98722L5.65704 8.20996ZM6.01374 8.55582C6.19081 8.85095 6.19783 9.22033 6.02975 9.52164L5.25223 9.08791C5.26412 9.0666 5.26437 9.03732 5.2503 9.01388L6.01374 8.55582ZM6.03017 9.52087L5.79503 9.94436L5.01666 9.51217L5.2518 9.08868L6.03017 9.52087ZM5.03499 9.14291C5.05064 9.169 5.07381 9.19145 5.10027 9.20627L5.53554 8.42962C5.64396 8.49038 5.73415 8.57764 5.79856 8.68507L5.03499 9.14291ZM5.10236 9.20744C5.23156 9.27894 5.39648 9.23345 5.46952 9.10129L4.69026 8.67068C4.85657 8.36972 5.23481 8.26319 5.53344 8.42845L5.10236 9.20744ZM5.46911 9.10203C4.92268 10.0864 4.72893 10.4356 4.65122 10.5647L3.8885 10.1054C3.95552 9.99408 4.13684 9.66772 4.69067 8.66994L5.46911 9.10203ZM4.37296 9.90198L4.37462 9.90237L4.1684 10.7685L4.16675 10.7681L4.37296 9.90198ZM4.6978 10.4636C4.69717 10.4657 4.68901 10.4945 4.67478 10.527C4.66044 10.5598 4.64503 10.5855 4.63459 10.6021C4.61813 10.6283 4.59273 10.6643 4.56392 10.7054L3.83452 10.1949C3.85142 10.1708 3.86289 10.1544 3.87133 10.1422C3.87545 10.1362 3.8782 10.1322 3.88004 10.1294C3.88195 10.1266 3.88211 10.1263 3.88127 10.1276C3.87987 10.1298 3.86974 10.1459 3.85917 10.17C3.85382 10.1823 3.84996 10.1929 3.84737 10.2006C3.84621 10.204 3.84541 10.2066 3.84511 10.2076C3.84488 10.2083 3.84474 10.2088 3.84522 10.2072L4.6978 10.4636ZM4.56344 10.7061C4.53131 10.7519 4.49853 10.7927 4.47098 10.8262L3.78368 10.2603C3.806 10.2332 3.82215 10.2125 3.83501 10.1942L4.56344 10.7061ZM4.47065 10.8266C4.19871 11.1561 4.16964 11.5477 4.3874 11.9108L3.62389 12.3687C3.2113 11.6808 3.27313 10.8789 3.78401 10.2599L4.47065 10.8266ZM4.38739 11.9108C4.51484 12.1233 4.72789 12.2758 5.00327 12.332L4.82518 13.2043C4.31918 13.101 3.88691 12.8072 3.6239 12.3687L4.38739 11.9108ZM5.00293 12.3319C5.28383 12.3891 5.58728 12.3375 5.85768 12.1753L6.31575 12.9387C5.86357 13.21 5.33449 13.3079 4.82552 13.2044L5.00293 12.3319ZM5.85771 12.1752L8.0836 10.8399L8.5416 11.6034L6.31571 12.9387L5.85771 12.1752ZM8.08383 10.8398C8.0334 10.87 7.99607 10.9201 7.9817 10.9777L8.8455 11.1933C8.8025 11.3656 8.69343 11.5125 8.54137 11.6035L8.08383 10.8398ZM7.98173 10.9776C7.96732 11.0352 7.97677 11.0969 8.0069 11.1471L8.77012 10.6887C8.86129 10.8405 8.88851 11.0213 8.84546 11.1935L7.98173 10.9776ZM8.00679 11.1469C8.06997 11.2522 8.20709 11.2879 8.31447 11.2233L7.85515 10.4606C8.17175 10.2699 8.5815 10.3743 8.77022 10.6889L8.00679 11.1469ZM8.31382 11.2236L7.21576 11.8824L6.75773 11.119L7.8558 10.4602L8.31382 11.2236ZM7.21592 11.8823C6.94622 12.0443 6.59489 11.9577 6.43242 11.6862L7.19639 11.2291C7.10518 11.0767 6.90833 11.0285 6.75757 11.1191L7.21592 11.8823ZM6.43277 11.6868C6.27046 11.4165 6.35808 11.0659 6.62825 10.9037L7.08661 11.6669C7.23785 11.5761 7.28693 11.3798 7.19603 11.2285L6.43277 11.6868ZM6.62843 10.9036L7.72657 10.2448L8.18457 11.0083L7.08643 11.6671L6.62843 10.9036ZM7.72657 10.2448L8.08321 10.0309L8.54122 10.7943L8.18458 11.0083L7.72657 10.2448ZM8.08301 10.031C8.03343 10.0608 7.99599 10.1104 7.98146 10.1684L8.84512 10.3846C8.80196 10.557 8.69262 10.7034 8.54142 10.7942L8.08301 10.031ZM7.98139 10.1687C7.96709 10.226 7.97631 10.2877 8.00674 10.3383L8.76965 9.87935C8.86112 10.0314 8.88812 10.2124 8.84519 10.3843L7.98139 10.1687ZM8.00653 10.3379C8.07007 10.4438 8.20714 10.4784 8.31365 10.4145L7.85534 9.6512C8.17093 9.4617 8.58062 9.56447 8.76986 9.87971L8.00653 10.3379ZM8.3135 10.4146L6.85872 11.2873L6.40071 10.5238L7.8555 9.6511L8.3135 10.4146ZM6.85882 11.2872C6.58812 11.4497 6.23782 11.3616 6.07574 11.0917L6.839 10.6334C6.74835 10.4824 6.55206 10.433 6.40061 10.5239L6.85882 11.2872ZM6.07574 11.0917C5.91323 10.8211 6.00149 10.4708 6.271 10.3087L6.7298 11.0717C6.88054 10.981 6.9301 10.7851 6.839 10.6334L6.07574 11.0917ZM6.2714 10.3085L8.05686 9.23737L8.51486 10.0008L6.7294 11.0719L6.2714 10.3085ZM8.05666 9.23749C8.00687 9.2674 7.9694 9.31727 7.95496 9.37513L8.81876 9.59077C8.77569 9.76331 8.66648 9.90978 8.51507 10.0007L8.05666 9.23749ZM7.955 9.37499C7.94058 9.43263 7.95005 9.49415 7.97997 9.5441L8.74372 9.08656C8.83453 9.23814 8.86177 9.41874 8.81872 9.59092L7.955 9.37499ZM7.98013 9.54436C8.01033 9.5947 8.06038 9.63196 8.11787 9.64631L8.33351 8.78251C8.50568 8.82549 8.65248 8.93449 8.74356 9.0863L7.98013 9.54436ZM8.11842 9.64645C8.17482 9.66045 8.2364 9.65145 8.28693 9.62117L7.82921 8.85753C7.98105 8.76652 8.16124 8.73974 8.33296 8.78237L8.11842 9.64645ZM8.28709 9.62107L7.95657 9.81937L7.49853 9.05592L7.82905 8.85762L8.28709 9.62107ZM7.72755 9.8828C7.74616 9.8828 7.76575 9.88163 7.78611 9.87893C7.80653 9.87622 7.82707 9.87205 7.84755 9.86632C7.86805 9.86058 7.88762 9.85351 7.90618 9.84538C7.9247 9.83726 7.94148 9.8284 7.95653 9.81938C7.98637 9.80147 8.00841 9.78346 8.022 9.77147C8.02879 9.76548 8.03409 9.76043 8.03728 9.75734C8.04019 9.75452 8.04264 9.75205 8.04223 9.75247C8.04223 9.75247 8.04223 9.75247 8.04223 9.75247C8.04222 9.75247 8.04222 9.75248 8.04221 9.75249C8.0422 9.7525 8.04218 9.75252 8.04215 9.75254C8.0421 9.75259 8.04202 9.75268 8.04192 9.75278C8.04173 9.75297 8.0414 9.7533 8.041 9.7537C8.04021 9.75448 8.0389 9.75577 8.03727 9.75735C8.03407 9.76045 8.02876 9.76551 8.02197 9.7715C8.00837 9.7835 7.98632 9.80152 7.95647 9.81943C7.94141 9.82846 7.92463 9.83732 7.9061 9.84544C7.88753 9.85358 7.86795 9.86065 7.84745 9.86639C7.82696 9.87213 7.8064 9.8763 7.78598 9.87901C7.76561 9.88171 7.74601 9.88288 7.72739 9.88288V8.99257C7.70878 8.99257 7.68919 8.99374 7.66882 8.99644C7.64841 8.99915 7.62787 9.00332 7.60739 9.00905C7.58689 9.01479 7.56732 9.02186 7.54876 9.02999C7.53024 9.03811 7.51346 9.04696 7.49841 9.05599C7.46857 9.0739 7.44653 9.09191 7.43294 9.1039C7.42615 9.10989 7.42085 9.11494 7.41766 9.11803C7.41475 9.12085 7.4123 9.12331 7.41271 9.1229C7.41271 9.1229 7.41271 9.1229 7.41271 9.1229C7.41271 9.12289 7.41272 9.12289 7.41273 9.12288C7.41274 9.12287 7.41276 9.12285 7.41279 9.12282C7.41283 9.12277 7.41292 9.12269 7.41302 9.12259C7.41321 9.1224 7.41354 9.12207 7.41394 9.12167C7.41473 9.12089 7.41604 9.1196 7.41767 9.11802C7.42087 9.11492 7.42618 9.10986 7.43297 9.10387C7.44657 9.09187 7.46862 9.07385 7.49847 9.05594C7.51353 9.04691 7.53031 9.03805 7.54884 9.02993C7.56741 9.02179 7.58699 9.01472 7.60749 9.00898C7.62798 9.00324 7.64853 8.99907 7.66895 8.99636C7.68933 8.99366 7.70893 8.99249 7.72755 8.99249V9.8828ZM7.72739 9.88288H7.72731V8.99257H7.72739V9.88288ZM7.95632 9.81945L6.50162 10.6922L6.0436 9.92871L7.4983 9.05599L7.95632 9.81945ZM6.50208 10.6919C6.2314 10.8547 5.88034 10.7668 5.71829 10.496L6.48226 10.0388C6.39146 9.88711 6.19458 9.83789 6.04314 9.92899L6.50208 10.6919ZM5.71864 10.4966C5.55612 10.226 5.64438 9.87564 5.9139 9.71358L6.3727 10.4766C6.52344 10.3859 6.573 10.1899 6.4819 10.0382L5.71864 10.4966ZM5.91429 9.71334L7.36908 8.84062L7.82708 9.60409L6.3723 10.4768L5.91429 9.71334ZM7.36887 8.84074C7.3193 8.87052 7.28185 8.92014 7.26732 8.97818L8.13098 9.19438C8.08782 9.36679 7.97848 9.51316 7.82728 9.60397L7.36887 8.84074ZM7.26735 8.97806C7.25137 9.04183 7.26519 9.1092 7.29976 9.15908L8.03153 8.65197C8.14066 8.80945 8.1784 9.00519 8.13095 9.1945L7.26735 8.97806ZM7.29947 9.15867C7.34263 9.22109 7.40204 9.24899 7.44802 9.25726C7.49409 9.26555 7.54341 9.25799 7.58714 9.23171L7.12857 8.46858C7.41024 8.29933 7.81797 8.34305 8.03181 8.65238L7.29947 9.15867ZM7.58686 9.23188L5.36258 10.5662L4.90457 9.80278L7.12885 8.46841L7.58686 9.23188ZM5.36197 10.5666C5.14123 10.6986 4.85845 10.6669 4.67252 10.4874L5.29086 9.84685C5.18658 9.74619 5.02855 9.72868 4.90519 9.80241L5.36197 10.5666ZM4.67251 10.4874C4.48641 10.3077 4.44466 10.0257 4.56984 9.80002L5.34839 10.2319C5.4185 10.1055 5.39516 9.94755 5.29087 9.84686L4.67251 10.4874ZM4.56989 9.79992L5.03241 8.96661L5.81085 9.39867L5.34834 10.232L4.56989 9.79992ZM5.03276 8.96598C5.00101 9.02297 5.00323 9.09005 5.03506 9.14309L5.79844 8.68494C5.92923 8.90286 5.93507 9.17571 5.8105 9.39929L5.03276 8.96598ZM5.06147 8.64581L5.06149 8.64578L5.77206 9.18219L5.77204 9.18222L5.06147 8.64581Z" fill="#4CAF4F" mask="url(#path-3-inside-2_212_1413)"/>
<path d="M9.731 8.98509C9.69626 8.98538 9.66134 8.98977 9.62688 8.9984L9.731 8.98509ZM9.731 8.98509C9.73166 8.97553 9.7325 8.96595 9.73353 8.95636L9.731 8.98509ZM9.32737 9.99421C9.32736 9.99423 9.32735 9.99425 9.32733 9.99427C9.32733 9.99427 9.32733 9.99428 9.32733 9.99428L9.32737 9.99421ZM9.32737 9.99421L9.30287 9.97948L9.32739 9.99418M9.32737 9.99421L9.32739 9.99418M9.32739 9.99418C9.32793 9.99328 9.32847 9.99239 9.32901 9.99151L9.32739 9.99418ZM11.0339 11.3099L11.034 11.3099L11.0339 11.3099Z" fill="#4CAF4F" stroke="#4CAF4F" stroke-width="0.445155"/>
</svg>
