<svg width="17" height="17" viewBox="0 0 17 17" fill="none" xmlns="http://www.w3.org/2000/svg">
<path d="M14.0917 14.4072V13.0717C14.0917 12.3634 13.8103 11.684 13.3094 11.1831C12.8085 10.6822 12.1291 10.4008 11.4207 10.4008H10.753C10.5759 10.4008 10.4061 10.3304 10.2808 10.2052C10.1556 10.08 10.0853 9.91016 10.0853 9.73306V6.3944C10.0853 6.04021 9.94457 5.70053 9.69413 5.45008C9.44368 5.19963 9.104 5.05893 8.74981 5.05893C8.39562 5.05893 8.05594 5.19963 7.80549 5.45008C7.55504 5.70053 7.41434 6.04021 7.41434 6.3944V12.404L5.81178 10.2673C5.68739 10.1014 5.52609 9.96677 5.34065 9.87405C5.15521 9.78133 4.95073 9.73306 4.74341 9.73306H4.45361C3.87602 9.73306 3.40794 10.2011 3.40794 10.7787C3.40794 10.9684 3.45936 11.1547 3.55685 11.3169L5.41114 14.4072M8.74981 3.05573V2.388V3.05573ZM12.7562 7.06213H13.4239H12.7562ZM4.07568 7.06213H4.74341H4.07568ZM5.64018 3.9525L5.16809 3.48041L5.64018 3.9525ZM11.8594 3.9525L12.3315 3.48041L11.8594 3.9525Z" fill="#4CAF4F"/>
<path d="M14.0917 14.4072V13.0717C14.0917 12.3634 13.8103 11.684 13.3094 11.1831C12.8085 10.6822 12.1291 10.4008 11.4207 10.4008H10.753C10.5759 10.4008 10.4061 10.3304 10.2808 10.2052C10.1556 10.08 10.0853 9.91016 10.0853 9.73306V6.3944C10.0853 6.04021 9.94457 5.70053 9.69413 5.45008C9.44368 5.19963 9.104 5.05893 8.74981 5.05893V5.05893C8.39562 5.05893 8.05594 5.19963 7.80549 5.45008C7.55504 5.70053 7.41434 6.04021 7.41434 6.3944V12.404L5.81178 10.2673C5.68739 10.1014 5.52609 9.96677 5.34065 9.87405C5.15521 9.78133 4.95073 9.73306 4.74341 9.73306H4.45361C3.87602 9.73306 3.40794 10.2011 3.40794 10.7787C3.40794 10.9684 3.45936 11.1547 3.55685 11.3169L5.41114 14.4072M8.74981 3.05573V2.388M12.7562 7.06213H13.4239M4.07568 7.06213H4.74341M5.64018 3.9525L5.16809 3.48041M11.8594 3.9525L12.3315 3.48041" stroke="#4CAF4F" stroke-width="0.667733" stroke-linecap="round" stroke-linejoin="round"/>
</svg>
